<?xml version="1.0" standalone="no"?><!DOCTYPE svg PUBLIC "-//W3C//DTD SVG 1.1//EN" "http://www.w3.org/Graphics/SVG/1.1/DTD/svg11.dtd"><svg t="1763043388217" class="icon" viewBox="0 0 1024 1024" version="1.1" xmlns="http://www.w3.org/2000/svg" p-id="2070" xmlns:xlink="http://www.w3.org/1999/xlink" width="200" height="200"><path d="M960 705.673c0 95.543-204.109 147.66-522.667 147.66-246.272-0.085-373.9-66.474-368.926-151.65 6.11-104.764 185.95-155.55 432.222-155.55S960 652.672 960 705.673z" fill="#F7F6F6" p-id="2071"></path><path d="M715.827 713.114s-9.096 13.666-20.36 16.226c0 0 38.558 0.256 64.115 3.413 0 0 12.13-18.36 17.762-19.64-0.085 0-40.721 2.56-61.517 0z m115.844-16.824s10.398 2.987 18.629 3.413c0 0 1.822 21.095-15.164 34.164 0 0-8.661-8.542-18.628-12.382 0 0 18.197-6.238 15.163-25.195z m-18.628-64.823s9.097 11.699 22.093 2.901c0 0-1.472 19.73 5.376 22.72 4.156 2.56 12.821 8.542 12.821 8.542s-20.36 8.964-36.821-7.689c-6.502-7.684-3.469-22.203-3.469-26.474z" fill="#BDC7DE" p-id="2072"></path><path d="M742.302 644.877L563.2 789.333l-6.127-287.641 188.16-108.65z" fill="#E7EAEE" p-id="2073"></path><path d="M243.2 694.87V585.202l261.342 75.554c17.51-125.482 52.531-187.34 52.531-159.061 0 15.019 3.938 213.406 6.127 287.637l-320-94.464z" fill="#C7CCD7" p-id="2074"></path><path d="M560.034 503.467l-90.7-12.8V315.733l277.333 79.138z" fill="#B9BEC6" p-id="2075"></path><path d="M469.333 486.4l-221.866-62.02 221.866-108.647z" fill="#D9DDE9" p-id="2076"></path><path d="M806.4 533.333L744.085 396.8 742.4 514.654z" fill="#D6DDE9" p-id="2077"></path><path d="M508.096 665.6l-320.363-97.156 60.48-146.044 310.72 78.707z" fill="#DBE4EE" p-id="2078"></path><path d="M890.906 181.97c-5.219-7.796-43.03 0.865-59.981 25.975-4.779 7.795-9.997 31.172-6.084 25.975 9.996-14.72 28.25-6.059 42.154-17.75 11.738-9.523 28.69-28.142 23.91-34.2z" fill="#F0F1F4" p-id="2079"></path><path d="M826.368 238.933h-1.792c-4.032-2.197 4.036-25.036 6.272-29.427 13.444-20.203 40.329-29.427 53.769-30.306 5.376 0 8.512 1.758 10.304 3.95 7.168 10.104-23.744 37.334-24.64 37.334-7.168 6.153-15.232 7.032-22.853 7.906-8.064 1.758-15.68 2.198-20.608 9.225 0.896 0.44 0.448 1.318-0.448 1.318z m59.145-56.661c-13.44 0-38.085 9.225-50.629 28.113-3.136 4.83-5.376 15.373-7.168 21.082 6.272-6.149 13.44-7.028 20.608-7.906 7.168-0.88 14.336-2.198 20.608-7.028 13.445-11.417 26.885-28.108 23.749-31.624-0.448-1.758-3.136-2.633-7.168-2.633z" fill="#B9BEC6" p-id="2080"></path><path d="M843.605 217.6l-3.072-2.236c14.042-18.325 30.28-32.183 64.512-42.014 3.072-0.896 4.826-1.792 5.265-1.792 1.758-0.891 1.758-0.891 6.144-0.891l0.88 4.023c-3.952 0.896-3.952 0.896-5.266 0.896-0.879 0-2.197 0.892-5.27 1.784-33.791 8.943-50.026 22.353-63.193 40.23z" fill="#B9BEC6" p-id="2081"></path><path d="M217.6 727.053c-0.862 7.825-32.742 16.956-55.578 6.088-7.752-3.046-20.676-17.826-15.94-15.219 13.79 5.218 23.697-6.955 38.776-5.218 12.492 2.176 32.742 8.26 32.742 14.349z" fill="#F0F1F4" p-id="2082"></path><path d="M183.18 738.133c-8.174 0-16.78-1.8-24.524-4.953-5.163-2.253-19.793-14.413-17.643-18.47 0 0 0.862-2.25 3.874-0.897 6.883 3.15 12.045 0.896 18.932-1.804 6.024-2.253 12.044-4.954 19.793-3.154 6.882 0.9 33.988 7.211 33.988 16.666 0 2.253-1.72 4.954-5.163 6.306-6.455 3.153-17.211 6.306-29.256 6.306z m-36.573-19.818c3.012 4.053 9.037 8.559 12.907 11.264 17.642 8.106 40.448 4.949 49.48-1.805 2.15-1.8 3.012-2.253 3.012-3.157 0-4.054-15.919-10.356-30.976-12.608-6.886-0.9-12.049 1.8-17.642 3.153-4.736 2.252-9.899 4.505-16.781 3.153z" fill="#B9BEC6" p-id="2083"></path><path d="M228.194 725.333c-14.775-3.963-26.948-2.201-37.811-1.762-10.867 0.44-19.123 1.762-28.25-1.758l1.737-3.963c7.825 3.08 16.951 2.201 26.948 1.762 11.298-0.883 23.902-2.202 38.247 1.758l-0.87 3.963z m470.938-409.907c-11.298 0-24.337-2.645-38.682-8.363l1.74-3.963c25.208 9.685 44.767 11.008 59.542 3.08-5.649-2.64-9.13-6.16-11.302-9.685-4.779-7.04-5.65-16.286-2.172-24.649 2.607-7.04 12.169-10.564 19.994-11.008 8.69-0.435 16.08 2.206 19.123 7.488 2.172 4.4 3.473 11.883-5.218 24.649-3.042 4.843-6.955 8.806-10.863 11.887 4.343 0.879 9.126 1.762 15.646 1.762 22.165 0 39.547-17.17 51.285-50.624l3.908 1.323c-12.603 35.652-31.291 53.7-55.628 53.7-8.26 0-14.776-1.323-19.994-3.08-7.386 5.282-16.512 7.483-27.38 7.483z m31.727-50.18h-1.741c-7.82 0.44-14.34 3.96-16.077 8.363-2.611 7.04-2.176 14.523 1.737 20.689 2.176 3.08 5.649 6.6 12.168 9.241 4.779-3.08 8.691-7.484 12.169-12.766 5.649-8.802 7.39-15.402 5.218-19.806-3.042-4.403-8.696-5.721-13.474-5.721zM310.25 659.57c-8.96 1.668-19.563 1.579-31.732-0.793l0.786-3.345c21.29 3.87 36.94 1.937 47.458-6.516-4.869-1.237-8.086-3.524-10.343-5.9-4.778-4.843-6.87-11.973-5.303-19.102 1.04-5.99 8.08-10.215 14.165-11.712 6.784-1.673 13.04-0.704 16.17 2.995 2.347 3.17 4.523 8.892-0.524 20.25-1.651 4.309-4.169 8.008-6.865 11.003 3.563 0 7.475 0 12.604-0.968 17.472-3.345 28.684-19.542 33.028-47.719l3.307 0.44c-4.694 30.024-16.777 47.104-35.985 50.799-6.52 1.237-11.823 1.237-16.256 0.618-5.044 5.193-11.909 8.278-20.515 9.946z m17.642-44.458l-1.39 0.26c-6.085 1.493-10.693 5.282-11.478 9.066-1.041 5.99 0.435 11.798 4.437 16.026 2.172 2.112 5.39 4.31 10.949 5.461 3.306-3.174 5.738-7.223 7.74-11.887 3.127-7.837 3.562-13.294 1.215-16.375-3.042-3.085-7.65-3.26-11.477-2.556z" fill="#CDD2D9" p-id="2084"></path><path d="M623.036 809.813c-7.232 8.576-6.622 22.754 10.547 24.504 13.423 1.404 30.592 5.162 56.388-4.113l106.07-65.212c17.34-10.675 19.78-35.273 4.53-48.75-0.264-0.265-0.524-0.526-0.874-0.7a30.353 30.353 0 0 0-34.513-3.414c-33.293 18.645-116.177 66.782-142.148 97.681z" fill="#E2E6ED" opacity=".7" p-id="2085"></path><path d="M673.46 823.467l-29.193-47.092 146.496-88.422c3.362-2.005 7.786-0.96 9.996 2.351l21.675 34.97c2.035 3.4 0.973 7.675-2.39 9.856L673.46 823.467z" fill="#FDE9CB" p-id="2086"></path><path d="M757.862 705.284l15.685-9.817 28.586 47.77-15.68 9.813-28.586-47.766z m-126.395 110.93l13.602-40.517 28.586 47.77-42.188-7.254z" fill="#FADAAB" p-id="2087"></path><path d="M674.133 813.397l105.694-62.464 0.973 1.536-105.694 62.464z" fill="#FFFFFF" p-id="2088"></path><path d="M444.843 376.363l-1.814 1.851a5.205 5.205 0 0 1-7.355 0l-37.38-38.058c-1.993-2.023-1.993-5.372 0-7.484l1.817-1.852a5.205 5.205 0 0 1 7.351 0l37.38 38.059c1.993 2.112 1.993 5.461 0 7.484z m59.878-13.39h-2.594c-2.859 0-5.193-2.376-5.193-5.286v-53.73c0-2.91 2.334-5.286 5.193-5.286h2.594c2.859 0 5.193 2.376 5.193 5.286v53.735c0 2.91-2.339 5.286-5.193 5.286z m59.183 15.241l-1.813-1.851c-1.993-2.027-1.993-5.376 0-7.488l37.376-38.055a5.205 5.205 0 0 1 7.355 0l1.818 1.852c1.993 2.022 1.993 5.372 0 7.488l-37.376 38.054a5.205 5.205 0 0 1-7.36 0z" fill="#ACBBD1" p-id="2089"></path></svg>